<svg width="465" height="258" viewBox="0 0 465 258" fill="none" xmlns="http://www.w3.org/2000/svg">
<g clip-path="url(#clip0_58_687)">
<path d="M50.7323 186.236V235.476C50.7323 237.362 49.832 237.853 48.355 237.853H40.4845C39.0074 237.853 38.1072 237.362 38.1072 235.476V207.704L29.9132 222.043C29.5035 222.7 28.765 223.762 27.5359 223.762H23.4389C22.2099 223.762 21.5522 222.695 21.1425 222.043L12.8623 207.704V235.476C12.8623 237.362 11.9621 237.853 10.485 237.853H2.37732C0.900254 237.853 0 237.362 0 235.476V186.236C0 184.76 0.490557 183.86 2.37732 183.86H10.4904C13.2774 183.86 13.6062 185.665 14.2585 186.646L25.4874 206.799L36.7972 186.646C37.3686 185.665 37.7783 183.86 40.4845 183.86H48.355C50.2417 183.86 50.7323 184.76 50.7323 186.236Z" fill="#686867"/>
<path d="M111.712 228.757V235.476C111.712 236.953 111.222 237.853 109.335 237.853H72.6185C70.7318 237.853 70.2412 236.953 70.2412 235.476V186.323C70.2412 184.846 70.7318 183.946 72.6185 183.946H107.944C109.831 183.946 110.321 184.846 110.321 186.323V193.123C110.321 194.599 109.831 195.499 107.944 195.499H83.1898V204.428H105.157C107.044 204.428 107.534 205.328 107.534 206.804V213.195C107.534 214.671 107.044 215.571 105.157 215.571H83.1898V226.386H109.335C111.222 226.386 111.712 227.286 111.712 228.762V228.757Z" fill="#686867"/>
<path d="M167.851 186.323V193.123C167.851 194.599 167.361 195.499 165.474 195.499H152.935V235.482C152.935 237.368 152.035 237.858 150.558 237.858H142.445C140.968 237.858 140.067 237.368 140.067 235.482V195.499H127.448C125.561 195.499 125.07 194.599 125.07 193.123V186.323C125.07 184.846 125.561 183.946 127.448 183.946H165.479C167.366 183.946 167.857 184.846 167.857 186.323H167.851Z" fill="#686867"/>
<path d="M226.374 237.853H216.703C214.735 237.853 213.754 237.114 212.606 235.395L203.754 222.204C203.016 221.218 202.854 220.318 202.854 218.028V211.476C202.854 210 203.345 209.1 205.231 209.1H206.87C210.886 209.1 214.654 206.314 214.654 202.461C214.654 198.199 211.377 195.499 207.113 195.499H196.213V235.482C196.213 237.368 195.312 237.858 193.835 237.858H185.722C184.245 237.858 183.426 237.368 183.426 235.482V186.409C183.426 184.932 183.835 184.032 185.722 184.032H206.374C215.307 184.032 219.242 185.832 222.687 189.275C225.722 192.223 227.441 196.895 227.441 202.138C227.441 210.738 221.129 216.719 216.051 218.443L227.608 235.239C228.347 236.387 227.937 237.863 226.379 237.863L226.374 237.853Z" fill="#686867"/>
<path d="M287.758 220.566C287.758 233.509 275.462 239.081 265.71 239.081C255.958 239.081 243.823 233.509 243.823 220.566V201.233C243.823 188.289 255.952 182.718 265.71 182.718C275.467 182.718 287.758 188.289 287.758 201.233V220.566ZM274.89 202.38C274.89 197.137 271.122 194.104 265.71 194.104C260.297 194.104 256.61 197.137 256.61 202.38V219.419C256.61 224.662 260.378 227.695 265.71 227.695C271.041 227.695 274.89 224.662 274.89 219.419V202.38Z" fill="#686867"/>
<path d="M325.865 239.081C316.113 239.081 303.897 233.429 303.897 220.566V201.233C303.897 188.37 316.107 182.718 325.865 182.718C335.622 182.718 346.107 187.88 347.174 198.285C347.174 200.252 346.517 200.661 344.635 200.661H336.765C335.045 200.661 334.964 199.104 334.307 198.123C332.587 195.418 330.291 194.19 325.865 194.19C320.458 194.19 316.765 197.224 316.765 202.38V219.419C316.765 224.662 320.452 227.609 325.865 227.609C330.291 227.609 333.816 225.971 334.468 222.037C334.716 220.399 334.878 219.09 336.679 219.09H344.711C346.511 219.09 347.169 219.909 347.169 221.876C347.169 232.443 336.021 239.081 325.859 239.081H325.865Z" fill="#686867"/>
<path d="M409.793 237.853H401.19C399.389 237.853 398.732 237.362 398.074 235.395L395.778 228.924H375.697L373.401 235.395C372.743 237.362 372.091 237.853 370.285 237.853H361.681C359.881 237.853 359.881 236.543 360.29 235.557L378.484 186.484C379.142 184.765 380.042 183.946 381.842 183.946H389.713C391.513 183.946 392.338 184.765 393.071 186.484L411.184 235.557C411.594 236.538 411.594 237.853 409.793 237.853ZM391.929 217.452L385.783 199.347L379.638 217.452H391.934H391.929Z" fill="#686867"/>
<path d="M464.623 228.757V235.476C464.623 236.953 464.132 237.853 462.245 237.853H428.149C426.262 237.853 425.771 236.953 425.771 235.476V186.323C425.771 184.437 426.672 183.946 428.149 183.946H436.262C437.739 183.946 438.639 184.437 438.639 186.323V226.386H462.245C464.132 226.386 464.623 227.286 464.623 228.762V228.757Z" fill="#686867"/>
<path d="M60.5001 247.449H58.4678V258H60.5001V247.449Z" fill="#4F689C"/>
<path d="M53.2388 251.087H51.2119V258H53.2388V251.087Z" fill="#4F689C"/>
<path d="M45.9835 251.087H43.9512V258H45.9835V251.087Z" fill="#4F689C"/>
<path d="M38.7159 251.087H36.6836V258H38.7159V251.087Z" fill="#4F689C"/>
<path d="M31.4547 247.449H29.4277V258H31.4547V247.449Z" fill="#4F689C"/>
<path d="M24.2042 251.087H22.1719V258H24.2042V251.087Z" fill="#4F689C"/>
<path d="M16.9376 251.087H14.9053V258H16.9376V251.087Z" fill="#4F689C"/>
<path d="M9.67633 251.087H7.64941V258H9.67633V251.087Z" fill="#4F689C"/>
<path d="M2.41512 247.449H0.382812V258H2.41512V247.449Z" fill="#4F689C"/>
<path d="M177.069 247.449H175.037V258H177.069V247.449Z" fill="#4F689C"/>
<path d="M169.809 251.087H167.776V258H169.809V251.087Z" fill="#4F689C"/>
<path d="M162.547 251.087H160.515V258H162.547V251.087Z" fill="#4F689C"/>
<path d="M155.281 251.087H153.254V258H155.281V251.087Z" fill="#4F689C"/>
<path d="M148.03 247.449H145.992V258H148.03V247.449Z" fill="#4F689C"/>
<path d="M140.769 251.087H138.736V258H140.769V251.087Z" fill="#4F689C"/>
<path d="M133.507 251.087H131.475V258H133.507V251.087Z" fill="#4F689C"/>
<path d="M126.246 251.087H124.214V258H126.246V251.087Z" fill="#4F689C"/>
<path d="M118.985 247.449H116.958V258H118.985V247.449Z" fill="#4F689C"/>
<path d="M111.723 251.087H109.696V258H111.723V251.087Z" fill="#4F689C"/>
<path d="M104.467 251.087H102.435V258H104.467V251.087Z" fill="#4F689C"/>
<path d="M97.2061 251.087H95.1738V258H97.2061V251.087Z" fill="#4F689C"/>
<path d="M89.939 247.449H87.9121V258H89.939V247.449Z" fill="#4F689C"/>
<path d="M82.6837 251.087H80.6514V258H82.6837V251.087Z" fill="#4F689C"/>
<path d="M75.4268 251.087H73.3945V258H75.4268V251.087Z" fill="#4F689C"/>
<path d="M68.1661 251.087H66.1338V258H68.1661V251.087Z" fill="#4F689C"/>
<path d="M292.253 247.449H290.227V258H292.253V247.449Z" fill="#4F689C"/>
<path d="M284.992 251.087H282.96V258H284.992V251.087Z" fill="#4F689C"/>
<path d="M277.736 251.087H275.704V258H277.736V251.087Z" fill="#4F689C"/>
<path d="M270.475 251.087H268.442V258H270.475V251.087Z" fill="#4F689C"/>
<path d="M263.208 247.449H261.176V258H263.208V247.449Z" fill="#4F689C"/>
<path d="M255.958 251.087H253.92V258H255.958V251.087Z" fill="#4F689C"/>
<path d="M248.691 251.087H246.659V258H248.691V251.087Z" fill="#4F689C"/>
<path d="M241.43 251.087H239.403V258H241.43V251.087Z" fill="#4F689C"/>
<path d="M234.174 247.449H232.142V258H234.174V247.449Z" fill="#4F689C"/>
<path d="M226.918 251.087H224.886V258H226.918V251.087Z" fill="#4F689C"/>
<path d="M219.651 251.087H217.619V258H219.651V251.087Z" fill="#4F689C"/>
<path d="M212.39 251.087H210.357V258H212.39V251.087Z" fill="#4F689C"/>
<path d="M205.134 247.449H203.102V258H205.134V247.449Z" fill="#4F689C"/>
<path d="M197.878 251.087H195.846V258H197.878V251.087Z" fill="#4F689C"/>
<path d="M190.617 251.087H188.579V258H190.617V251.087Z" fill="#4F689C"/>
<path d="M183.35 251.087H181.317V258H183.35V251.087Z" fill="#4F689C"/>
<path d="M408.823 247.449H406.791V258H408.823V247.449Z" fill="#4F689C"/>
<path d="M401.562 251.087H399.524V258H401.562V251.087Z" fill="#4F689C"/>
<path d="M394.306 251.087H392.269V258H394.306V251.087Z" fill="#4F689C"/>
<path d="M387.04 251.087H385.013V258H387.04V251.087Z" fill="#4F689C"/>
<path d="M437.588 247.449H435.556V258H437.588V247.449Z" fill="#4F689C"/>
<path d="M430.327 251.087H428.3V258H430.327V251.087Z" fill="#4F689C"/>
<path d="M443.539 251.087H441.507V258H443.539V251.087Z" fill="#4F689C"/>
<path d="M423.07 251.087H421.038V258H423.07V251.087Z" fill="#4F689C"/>
<path d="M415.815 251.087H413.777V258H415.815V251.087Z" fill="#4F689C"/>
<path d="M465.005 247.449H462.973V258H465.005V247.449Z" fill="#4F689C"/>
<path d="M457.744 251.087H455.712V258H457.744V251.087Z" fill="#4F689C"/>
<path d="M450.483 251.087H448.445V258H450.483V251.087Z" fill="#4F689C"/>
<path d="M379.783 247.449H377.751V258H379.783V247.449Z" fill="#4F689C"/>
<path d="M372.522 251.087H370.495V258H372.522V251.087Z" fill="#4F689C"/>
<path d="M365.255 251.087H363.229V258H365.255V251.087Z" fill="#4F689C"/>
<path d="M357.999 251.087H355.967V258H357.999V251.087Z" fill="#4F689C"/>
<path d="M350.738 247.449H348.711V258H350.738V247.449Z" fill="#4F689C"/>
<path d="M343.471 251.087H341.444V258H343.471V251.087Z" fill="#4F689C"/>
<path d="M336.215 251.087H334.183V258H336.215V251.087Z" fill="#4F689C"/>
<path d="M328.959 251.087H326.927V258H328.959V251.087Z" fill="#4F689C"/>
<path d="M321.698 247.449H319.671V258H321.698V247.449Z" fill="#4F689C"/>
<path d="M314.442 251.087H312.41V258H314.442V251.087Z" fill="#4F689C"/>
<path d="M307.18 251.087H305.143V258H307.18V251.087Z" fill="#4F689C"/>
<path d="M299.914 251.087H297.887V258H299.914V251.087Z" fill="#4F689C"/>
<mask id="mask0_58_687" style="mask-type:luminance" maskUnits="userSpaceOnUse" x="161" y="0" width="146" height="145">
<path d="M255.931 22.8363H283.963V121.92H250.293V74.598H243.603V67.9432H250.293V64.5701H218.509V67.9432H225.199V74.598H218.509V121.92H184.838V22.8363H212.87L234.395 60.1084L255.926 22.8363H255.931ZM161.992 72.3726C161.992 112.344 194.412 144.745 234.401 144.745C274.389 144.745 306.809 112.344 306.809 72.3726C306.809 32.4009 274.395 0 234.401 0C194.407 0 161.992 32.4063 161.992 72.378" fill="white"/>
</mask>
<g mask="url(#mask0_58_687)">
<path d="M306.814 0H161.992V144.751H306.814V0Z" fill="url(#paint0_linear_58_687)"/>
</g>
</g>
<defs>
<linearGradient id="paint0_linear_58_687" x1="161.426" y1="73.1418" x2="306.244" y2="73.1418" gradientUnits="userSpaceOnUse">
<stop stop-color="#166B9D"/>
<stop offset="1" stop-color="#0199D5"/>
</linearGradient>
<clipPath id="clip0_58_687">
<rect width="465" height="258" fill="white"/>
</clipPath>
</defs>
</svg>
