<svg width="17" height="17" viewBox="0 0 17 17" fill="none" xmlns="http://www.w3.org/2000/svg">
<path d="M8.5 9.36328C8.97678 9.36328 9.36328 8.97678 9.36328 8.5C9.36328 8.02322 8.97678 7.63672 8.5 7.63672C8.02322 7.63672 7.63672 8.02322 7.63672 8.5C7.63672 8.97678 8.02322 9.36328 8.5 9.36328Z" fill="#777777"/>
<path d="M11.4883 9.36328C11.9651 9.36328 12.3516 8.97678 12.3516 8.5C12.3516 8.02322 11.9651 7.63672 11.4883 7.63672C11.0115 7.63672 10.625 8.02322 10.625 8.5C10.625 8.97678 11.0115 9.36328 11.4883 9.36328Z" fill="#777777"/>
<path d="M5.51172 9.36328C5.9885 9.36328 6.375 8.97678 6.375 8.5C6.375 8.02322 5.9885 7.63672 5.51172 7.63672C5.03494 7.63672 4.64844 8.02322 4.64844 8.5C4.64844 8.97678 5.03494 9.36328 5.51172 9.36328Z" fill="#777777"/>
<path d="M5.3125 12.2187L1.0625 8.5L5.3125 4.78125M11.6875 12.2187L15.9375 8.5L11.6875 4.78125" stroke="#777777" stroke-width="2" stroke-linecap="round" stroke-linejoin="round"/>
</svg>
