<svg width="28" height="28" viewBox="0 0 28 28" fill="none" xmlns="http://www.w3.org/2000/svg">
<path d="M14 0C6.28048 0 0 6.28048 0 14C0 21.7195 6.28048 28 14 28C21.7195 28 28 21.7195 28 14C28 6.28048 21.7195 0 14 0ZM14 21.5324C13.7338 21.5324 13.4735 21.4535 13.2521 21.3055C13.0307 21.1576 12.8582 20.9474 12.7563 20.7014C12.6544 20.4554 12.6278 20.1848 12.6797 19.9236C12.7317 19.6625 12.8599 19.4226 13.0481 19.2344C13.2364 19.0461 13.4763 18.9179 13.7374 18.866C13.9985 18.814 14.2692 18.8407 14.5152 18.9426C14.7611 19.0445 14.9714 19.217 15.1193 19.4384C15.2672 19.6597 15.3462 19.92 15.3462 20.1863C15.3462 20.5433 15.2043 20.8857 14.9519 21.1381C14.6994 21.3906 14.357 21.5324 14 21.5324ZM15.4619 7.99346L15.0756 16.205C15.0756 16.4906 14.9621 16.7645 14.7602 16.9665C14.5582 17.1685 14.2843 17.2819 13.9987 17.2819C13.713 17.2819 13.4391 17.1685 13.2372 16.9665C13.0352 16.7645 12.9217 16.4906 12.9217 16.205L12.5354 7.9975V7.99414C12.5269 7.79687 12.5585 7.59994 12.6281 7.41519C12.6978 7.23044 12.8041 7.0617 12.9407 6.91912C13.0773 6.77655 13.2413 6.66309 13.4229 6.58558C13.6045 6.50807 13.7999 6.46811 13.9973 6.46811C14.1948 6.46811 14.3902 6.50807 14.5717 6.58558C14.7533 6.66309 14.9174 6.77655 15.0539 6.91912C15.1905 7.0617 15.2969 7.23044 15.3665 7.41519C15.4362 7.59994 15.4677 7.79687 15.4592 7.99414L15.4619 7.99346Z" fill="#FFC048"/>
</svg>
