<svg width="22" height="18" viewBox="0 0 22 18" fill="none" xmlns="http://www.w3.org/2000/svg">
<path d="M1.71428 12.4287L20.2857 12.4287C20.6802 12.4287 21 12.1089 21 11.7144V1.71443C21 1.31994 20.6802 1.00014 20.2857 1.00014L1.71428 1.00014C1.3198 1.00014 1 1.31994 1 1.71443V11.7144C1 12.1089 1.3198 12.4287 1.71428 12.4287Z" stroke="black" stroke-linejoin="round"/>
<path d="M2.42871 14.5715H19.5716M3.85728 16.7144H18.143" stroke="black" stroke-linecap="round" stroke-linejoin="round"/>
<path d="M11.0001 10.2857C12.9726 10.2857 14.5716 8.6867 14.5716 6.71425C14.5716 4.74181 12.9726 3.14282 11.0001 3.14282C9.02769 3.14282 7.42871 4.74181 7.42871 6.71425C7.42871 8.6867 9.02769 10.2857 11.0001 10.2857Z" stroke="black" stroke-linecap="round" stroke-linejoin="round"/>
<path d="M21 4.57143C20.0528 4.57143 19.1444 4.19515 18.4746 3.52538C17.8048 2.85561 17.4286 1.9472 17.4286 1M1 4.57143C1.46901 4.57143 1.93342 4.47905 2.36673 4.29957C2.80003 4.12009 3.19374 3.85702 3.52538 3.52538C3.85702 3.19374 4.12009 2.80003 4.29957 2.36673C4.47905 1.93342 4.57143 1.46901 4.57143 1M21 8.85714C20.0528 8.85714 19.1444 9.23342 18.4746 9.90319C17.8048 10.573 17.4286 11.4814 17.4286 12.4286M1 8.85714C1.46901 8.85714 1.93342 8.94952 2.36673 9.129C2.80003 9.30848 3.19374 9.57155 3.52538 9.90319C3.85702 10.2348 4.12009 10.6285 4.29957 11.0618C4.47905 11.4952 4.57143 11.9596 4.57143 12.4286" stroke="black" stroke-linecap="round" stroke-linejoin="round"/>
</svg>
