<svg width="13" height="13" viewBox="0 0 13 13" fill="none" xmlns="http://www.w3.org/2000/svg">
<path d="M10.9999 0H3.99998C3.55657 0.000297171 3.12581 0.120095 2.7752 0.340622C2.42458 0.56115 2.17392 0.869945 2.0625 1.21862H9.18744C9.80075 1.21862 10.3889 1.41656 10.8226 1.76888C11.2563 2.12121 11.4999 2.59907 11.4999 3.09733V10.8379L12.1874 11.2847C12.2726 11.3401 12.3778 11.3714 12.487 11.3737C12.5961 11.376 12.7032 11.3492 12.7918 11.2974C12.8573 11.2581 12.9103 11.2067 12.9465 11.1475C12.9827 11.0882 13.001 11.0228 12.9999 10.9567V1.62483C12.9999 1.1939 12.7892 0.780617 12.4141 0.475902C12.0391 0.171187 11.5304 0 10.9999 0Z" fill="#777777"/>
<path d="M8.49999 2.03101H2.00004C1.46961 2.03101 0.96091 2.20219 0.585841 2.50691C0.210771 2.81162 5.91236e-05 3.2249 5.91236e-05 3.65584V12.5828C-0.00117358 12.6486 0.0168857 12.7137 0.0527467 12.7728C0.0886077 12.8319 0.141242 12.8832 0.206307 12.9224C0.296697 12.9758 0.406464 13.003 0.518099 12.9997C0.629734 12.9964 0.736807 12.9629 0.82224 12.9044L5.25002 9.87386L9.67779 12.9032C9.76267 12.9612 9.86892 12.9947 9.97981 12.9984C10.0907 13.002 10.1999 12.9756 10.2903 12.9232C10.3562 12.884 10.4096 12.8326 10.446 12.7733C10.4825 12.7139 10.501 12.6483 10.5 12.582V3.65584C10.5 3.2249 10.2893 2.81162 9.91419 2.50691C9.53912 2.20219 9.03042 2.03101 8.49999 2.03101Z" fill="#777777"/>
</svg>
