<svg width="22" height="17" viewBox="0 0 22 17" fill="none" xmlns="http://www.w3.org/2000/svg">
<path d="M11 4.5625C11.6875 1.97196 14.2841 0.649204 19.9375 0.625005C20.0279 0.624679 20.1174 0.641432 20.201 0.674296C20.2846 0.707161 20.3605 0.755487 20.4244 0.81649C20.4883 0.877494 20.5389 0.949967 20.5734 1.02973C20.6078 1.1095 20.6253 1.19498 20.625 1.28125V13.0938C20.625 13.2678 20.5526 13.4347 20.4236 13.5578C20.2947 13.6809 20.1198 13.75 19.9375 13.75C14.4375 13.75 12.3127 14.8086 11 16.375M11 4.5625C10.3125 1.97196 7.7159 0.649204 2.0625 0.625005C1.97213 0.624679 1.88257 0.641432 1.79901 0.674296C1.71544 0.707161 1.63952 0.755487 1.57561 0.81649C1.5117 0.877494 1.46107 0.949967 1.42664 1.02973C1.39221 1.1095 1.37466 1.19498 1.375 1.28125V13.0146C1.375 13.4198 1.63797 13.75 2.0625 13.75C7.5625 13.75 9.69504 14.8164 11 16.375M11 4.5625V16.375" stroke="#333333" stroke-linecap="round" stroke-linejoin="round"/>
</svg>
