<svg width="16" height="22" viewBox="0 0 16 22" fill="none" xmlns="http://www.w3.org/2000/svg">
<path d="M4.5625 2.75L3.1875 2.75C2.64049 2.75 2.11589 2.9673 1.72909 3.35409C1.3423 3.74089 1.125 4.26549 1.125 4.8125L1.125 18.5625C1.125 19.1095 1.3423 19.6341 1.72909 20.0209C2.11589 20.4077 2.64049 20.625 3.1875 20.625L12.8125 20.625C13.3595 20.625 13.8841 20.4077 14.2709 20.0209C14.6577 19.6341 14.875 19.1095 14.875 18.5625L14.875 4.8125C14.875 4.26549 14.6577 3.74089 14.2709 3.35409C13.8841 2.9673 13.3595 2.75 12.8125 2.75L11.4375 2.75" stroke="#333333" stroke-linejoin="round"/>
<path d="M5.68527 1.375L10.3147 1.375C10.9348 1.375 11.4375 1.87768 11.4375 2.49777L11.4375 3.00223C11.4375 3.62232 10.9348 4.125 10.3147 4.125L5.68527 4.125C5.06518 4.125 4.5625 3.62232 4.5625 3.00223L4.5625 2.49777C4.5625 1.87768 5.06518 1.375 5.68527 1.375Z" stroke="#333333" stroke-linejoin="round"/>
</svg>
