<svg width="18" height="18" viewBox="0 0 18 18" fill="none" xmlns="http://www.w3.org/2000/svg">
<path d="M9 0C4.03745 0 0 4.03745 0 9C0 13.9625 4.03745 18 9 18C13.9625 18 18 13.9625 18 9C18 4.03745 13.9625 0 9 0ZM9.08654 4.15385C9.7027 4.15385 10.305 4.33656 10.8174 4.67888C11.3297 5.02121 11.729 5.50776 11.9648 6.07702C12.2006 6.64629 12.2623 7.27269 12.1421 7.87701C12.0219 8.48134 11.7251 9.03645 11.2894 9.47214C10.8538 9.90783 10.2986 10.2045 9.69432 10.3248C9.08999 10.445 8.46359 10.3833 7.89433 10.1475C7.32507 9.91167 6.83851 9.51237 6.49619 9.00005C6.15387 8.48772 5.97115 7.8854 5.97115 7.26923C5.97115 6.44298 6.29938 5.65057 6.88363 5.06632C7.46788 4.48207 8.26029 4.15385 9.08654 4.15385ZM9 16.6154C7.94962 16.6158 6.91057 16.3984 5.94849 15.9769C4.9864 15.5553 4.1222 14.9388 3.41048 14.1663C3.79298 12.1855 7.22856 11.7692 9 11.7692C10.7714 11.7692 14.207 12.1855 14.5895 14.1659C13.8779 14.9386 13.0137 15.5552 12.0516 15.9768C11.0895 16.3984 10.0504 16.6158 9 16.6154Z" fill="#777777"/>
</svg>
