<svg width="25" height="22" viewBox="0 0 25 22" fill="none" xmlns="http://www.w3.org/2000/svg">
<path d="M20.2188 1.25H4.78125C4.0277 1.25214 3.30563 1.55244 2.77278 2.08528C2.23994 2.61813 1.93964 3.3402 1.9375 4.09375V13.8438C1.93964 14.5973 2.23994 15.3194 2.77278 15.8522C3.30563 16.3851 4.0277 16.6854 4.78125 16.6875H6.8125V20.75L11.5717 16.782C11.6448 16.7209 11.737 16.6875 11.8322 16.6875H20.2188C20.9723 16.6854 21.6944 16.3851 22.2272 15.8522C22.7601 15.3194 23.0604 14.5973 23.0625 13.8438V4.09375C23.0604 3.3402 22.7601 2.61813 22.2272 2.08528C21.6944 1.55244 20.9723 1.25214 20.2188 1.25Z" stroke="#09f" stroke-width="2" stroke-linejoin="round"/>
<path d="M7.625 10.5938C8.52246 10.5938 9.25 9.86621 9.25 8.96875C9.25 8.07129 8.52246 7.34375 7.625 7.34375C6.72754 7.34375 6 8.07129 6 8.96875C6 9.86621 6.72754 10.5938 7.625 10.5938Z" fill="#09f"/>
<path d="M12.5 10.5938C13.3975 10.5938 14.125 9.86621 14.125 8.96875C14.125 8.07129 13.3975 7.34375 12.5 7.34375C11.6025 7.34375 10.875 8.07129 10.875 8.96875C10.875 9.86621 11.6025 10.5938 12.5 10.5938Z" fill="#09f"/>
<path d="M17.375 10.5938C18.2725 10.5938 19 9.86621 19 8.96875C19 8.07129 18.2725 7.34375 17.375 7.34375C16.4775 7.34375 15.75 8.07129 15.75 8.96875C15.75 9.86621 16.4775 10.5938 17.375 10.5938Z" fill="#09f"/>
</svg>
