<svg width="13" height="13" viewBox="0 0 13 13" fill="none" xmlns="http://www.w3.org/2000/svg">
<path d="M4.99107 6.03571H1.04464C0.767586 6.03571 0.501877 5.92565 0.305969 5.72975C0.11006 5.53384 0 5.26813 0 4.99107V1.04464C0 0.767586 0.11006 0.501877 0.305969 0.305969C0.501877 0.11006 0.767586 0 1.04464 0H4.99107C5.26813 0 5.53384 0.11006 5.72975 0.305969C5.92565 0.501877 6.03571 0.767586 6.03571 1.04464V4.99107C6.03571 5.26813 5.92565 5.53384 5.72975 5.72975C5.53384 5.92565 5.26813 6.03571 4.99107 6.03571ZM11.9554 6.03571H8.00893C7.73187 6.03571 7.46616 5.92565 7.27025 5.72975C7.07435 5.53384 6.96429 5.26813 6.96429 4.99107V1.04464C6.96429 0.767586 7.07435 0.501877 7.27025 0.305969C7.46616 0.11006 7.73187 0 8.00893 0H11.9554C12.2324 0 12.4981 0.11006 12.694 0.305969C12.8899 0.501877 13 0.767586 13 1.04464V4.99107C13 5.26813 12.8899 5.53384 12.694 5.72975C12.4981 5.92565 12.2324 6.03571 11.9554 6.03571ZM4.99107 13H1.04464C0.767586 13 0.501877 12.8899 0.305969 12.694C0.11006 12.4981 0 12.2324 0 11.9554V8.00893C0 7.73187 0.11006 7.46616 0.305969 7.27025C0.501877 7.07435 0.767586 6.96429 1.04464 6.96429H4.99107C5.26813 6.96429 5.53384 7.07435 5.72975 7.27025C5.92565 7.46616 6.03571 7.73187 6.03571 8.00893V11.9554C6.03571 12.2324 5.92565 12.4981 5.72975 12.694C5.53384 12.8899 5.26813 13 4.99107 13ZM11.9554 13H8.00893C7.73187 13 7.46616 12.8899 7.27025 12.694C7.07435 12.4981 6.96429 12.2324 6.96429 11.9554V8.00893C6.96429 7.73187 7.07435 7.46616 7.27025 7.27025C7.46616 7.07435 7.73187 6.96429 8.00893 6.96429H11.9554C12.2324 6.96429 12.4981 7.07435 12.694 7.27025C12.8899 7.46616 13 7.73187 13 8.00893V11.9554C13 12.2324 12.8899 12.4981 12.694 12.694C12.4981 12.8899 12.2324 13 11.9554 13Z" fill="#777777"/>
</svg>
