<svg width="22" height="22" viewBox="0 0 22 22" fill="none" xmlns="http://www.w3.org/2000/svg">
<path d="M14.4375 8.9375V4.85547C14.4375 3.94379 14.0753 3.06945 13.4307 2.42479C12.786 1.78013 11.9117 1.41797 11 1.41797C10.0883 1.41797 9.21398 1.78013 8.56932 2.42479C7.92466 3.06945 7.5625 3.94379 7.5625 4.85547V8.9375" stroke="#555" stroke-width="2" stroke-linecap="round" stroke-linejoin="round"/>
<path d="M15.8125 8.9375H6.1875C5.04841 8.9375 4.125 9.86091 4.125 11V18.5625C4.125 19.7016 5.04841 20.625 6.1875 20.625H15.8125C16.9516 20.625 17.875 19.7016 17.875 18.5625V11C17.875 9.86091 16.9516 8.9375 15.8125 8.9375Z" stroke="#555" stroke-width="2" stroke-linecap="round" stroke-linejoin="round"/>
</svg>
