<svg width="15" height="15" viewBox="0 0 15 15" fill="none" xmlns="http://www.w3.org/2000/svg">
<path d="M9.125 10.75V12.375C9.125 12.806 8.98233 13.2193 8.72837 13.524C8.47442 13.8288 8.12998 14 7.77083 14H2.35417C1.99502 14 1.65058 13.8288 1.39663 13.524C1.14267 13.2193 1 12.806 1 12.375V2.625C1 2.19402 1.14267 1.7807 1.39663 1.47595C1.65058 1.1712 1.99502 1 2.35417 1H7.5C8.24784 1 9.125 1.72759 9.125 2.625V4.25M11.2917 10.75L14 7.5L11.2917 4.25M4.79167 7.5H13.4583" stroke="#FF6347" stroke-width="2" stroke-linecap="round" stroke-linejoin="round"/>
</svg>
