<svg width="17" height="15" viewBox="0 0 17 15" fill="none" xmlns="http://www.w3.org/2000/svg">
<path d="M8.33097 6.21733H6.73722C6.69176 5.95597 6.60795 5.72443 6.4858 5.52273C6.36364 5.31818 6.21165 5.14489 6.02983 5.00284C5.84801 4.8608 5.64063 4.75426 5.40767 4.68324C5.17756 4.60938 4.92898 4.57244 4.66193 4.57244C4.1875 4.57244 3.76705 4.69176 3.40057 4.9304C3.03409 5.16619 2.74716 5.51278 2.53977 5.97017C2.33239 6.42472 2.22869 6.98011 2.22869 7.63636C2.22869 8.30398 2.33239 8.86648 2.53977 9.32386C2.75 9.77841 3.03693 10.1222 3.40057 10.3551C3.76705 10.5852 4.18608 10.7003 4.65767 10.7003C4.91903 10.7003 5.16335 10.6662 5.39062 10.598C5.62074 10.527 5.8267 10.4233 6.00852 10.2869C6.19318 10.1506 6.34801 9.98295 6.47301 9.78409C6.60085 9.58523 6.68892 9.35795 6.73722 9.10227L8.33097 9.1108C8.27131 9.52557 8.14205 9.91477 7.94318 10.2784C7.74716 10.642 7.49006 10.9631 7.17188 11.2415C6.85369 11.517 6.48153 11.733 6.0554 11.8892C5.62926 12.0426 5.15625 12.1193 4.63636 12.1193C3.86932 12.1193 3.18466 11.9418 2.58239 11.5866C1.98011 11.2315 1.50568 10.7188 1.15909 10.0483C0.8125 9.37784 0.639205 8.57386 0.639205 7.63636C0.639205 6.69602 0.81392 5.89205 1.16335 5.22443C1.51278 4.55398 1.98864 4.04119 2.59091 3.68608C3.19318 3.33097 3.875 3.15341 4.63636 3.15341C5.12216 3.15341 5.57386 3.22159 5.99148 3.35795C6.40909 3.49432 6.78125 3.6946 7.10795 3.95881C7.43466 4.22017 7.70313 4.54119 7.91335 4.92188C8.12642 5.29972 8.26563 5.73153 8.33097 6.21733ZM12.506 13.0909V2.18182H13.2049V13.0909H12.506ZM14.5217 5.67188C14.4819 5.29972 14.3143 5.00994 14.0188 4.80256C13.7262 4.59517 13.3455 4.49148 12.8768 4.49148C12.5472 4.49148 12.2646 4.54119 12.0288 4.64062C11.793 4.74006 11.6126 4.875 11.4876 5.04545C11.3626 5.21591 11.2987 5.41051 11.2958 5.62926C11.2958 5.81108 11.337 5.96875 11.4194 6.10227C11.5046 6.2358 11.6197 6.34943 11.7646 6.44318C11.9094 6.53409 12.07 6.6108 12.2461 6.6733C12.4222 6.7358 12.5998 6.78835 12.7788 6.83097L13.5969 7.03551C13.9265 7.11222 14.2433 7.21591 14.5472 7.34659C14.854 7.47727 15.1282 7.64205 15.3697 7.84091C15.614 8.03977 15.8072 8.27983 15.9492 8.56108C16.0913 8.84233 16.1623 9.17187 16.1623 9.54972C16.1623 10.0611 16.0316 10.5114 15.7702 10.9006C15.5089 11.2869 15.131 11.5895 14.6367 11.8082C14.1452 12.0241 13.5501 12.1321 12.8512 12.1321C12.1722 12.1321 11.5827 12.027 11.0827 11.8168C10.5856 11.6065 10.1964 11.2997 9.91513 10.8963C9.63672 10.4929 9.48615 10.0014 9.46342 9.42188H11.0188C11.0415 9.72585 11.1353 9.97869 11.3001 10.1804C11.4648 10.3821 11.6793 10.5327 11.9435 10.6321C12.2106 10.7315 12.5089 10.7812 12.8384 10.7812C13.1822 10.7812 13.4833 10.7301 13.7418 10.6278C14.0032 10.5227 14.2077 10.3778 14.3555 10.1932C14.5032 10.0057 14.5785 9.78693 14.5813 9.53693C14.5785 9.30966 14.5117 9.12216 14.381 8.97443C14.2504 8.82386 14.0671 8.69886 13.8313 8.59943C13.5984 8.49716 13.3256 8.40625 13.0131 8.3267L12.0202 8.07102C11.3015 7.88636 10.7333 7.60653 10.3157 7.23153C9.90092 6.85369 9.69354 6.35227 9.69354 5.72727C9.69354 5.21307 9.83274 4.76278 10.1112 4.37642C10.3924 3.99006 10.7745 3.69034 11.2575 3.47727C11.7404 3.26136 12.2873 3.15341 12.8981 3.15341C13.5174 3.15341 14.06 3.26136 14.5259 3.47727C14.9947 3.69034 15.3626 3.98722 15.6296 4.3679C15.8967 4.74574 16.0344 5.1804 16.043 5.67188H14.5217Z" fill="black"/>
</svg>
