<svg width="21" height="23" viewBox="0 0 21 23" fill="none" xmlns="http://www.w3.org/2000/svg">
<path d="M13.6251 17.75V18.5313C13.6251 19.3601 13.2958 20.1549 12.7098 20.741C12.1237 21.327 11.3289 21.6563 10.5001 21.6563C9.67126 21.6563 8.8764 21.327 8.29035 20.741C7.7043 20.1549 7.37506 19.3601 7.37506 18.5313V17.75M18.8829 16.1597C17.629 14.625 16.7437 13.8438 16.7437 9.61279C16.7437 5.73828 14.7652 4.35791 13.1368 3.6875C12.9205 3.59863 12.7169 3.39453 12.6509 3.17236C12.3653 2.2002 11.5645 1.34375 10.5001 1.34375C9.43561 1.34375 8.63434 2.20068 8.35162 3.17334C8.2857 3.39795 8.08209 3.59863 7.86578 3.6875C6.23541 4.35889 4.25885 5.73438 4.25885 9.61279C4.25641 13.8438 3.37115 14.625 2.11725 16.1597C1.59771 16.7954 2.05279 17.75 2.96148 17.75H10.5025H18.0435C18.9473 17.75 19.3995 16.7925 18.8829 16.1597Z" stroke="#333333" stroke-width="2" stroke-linecap="round" stroke-linejoin="round"/>
</svg>
