<svg width="19" height="19" viewBox="0 0 19 19" fill="none" xmlns="http://www.w3.org/2000/svg">
<path d="M13.3082 4.79749L3.20959 14.9209L2.59766 16.4023L4.07906 15.7904L14.2025 5.69182L13.3082 4.79749ZM15.3288 2.77725L14.8912 3.2144L15.7856 4.10874L16.2231 3.67122C16.3379 3.55633 16.4024 3.40056 16.4024 3.23815C16.4024 3.07574 16.3379 2.91997 16.2231 2.80508L16.1953 2.77725C16.1384 2.72035 16.0708 2.67522 15.9965 2.64442C15.9222 2.61363 15.8425 2.59778 15.762 2.59778C15.6816 2.59778 15.6019 2.61363 15.5275 2.64442C15.4532 2.67522 15.3857 2.72035 15.3288 2.77725Z" stroke="white" stroke-width="2" stroke-linecap="round" stroke-linejoin="round"/>
</svg>
