<svg width="13" height="18" viewBox="0 0 13 18" fill="none" xmlns="http://www.w3.org/2000/svg">
<path d="M10.6364 1.2H10.215C10.1556 1.19994 10.0977 1.18173 10.0487 1.14776C9.99966 1.11378 9.96186 1.0656 9.9402 1.0095C9.82667 0.712447 9.62743 0.457135 9.36858 0.277004C9.10972 0.0968736 8.80333 0.000323596 8.48952 0H4.51048C4.19667 0.000323596 3.89028 0.0968736 3.63142 0.277004C3.37257 0.457135 3.17333 0.712447 3.0598 1.0095C3.03814 1.0656 3.00034 1.11378 2.95133 1.14776C2.90232 1.18173 2.84437 1.19994 2.78503 1.2H2.36364C1.73676 1.2 1.13556 1.45286 0.692293 1.90294C0.249025 2.35303 0 2.96348 0 3.6V15.6C0 16.2365 0.249025 16.847 0.692293 17.2971C1.13556 17.7471 1.73676 18 2.36364 18H10.6364C11.2632 18 11.8644 17.7471 12.3077 17.2971C12.751 16.847 13 16.2365 13 15.6V3.6C13 2.96348 12.751 2.35303 12.3077 1.90294C11.8644 1.45286 11.2632 1.2 10.6364 1.2ZM8.85883 3.6H4.14116C3.98445 3.6 3.83415 3.53679 3.72333 3.42426C3.61251 3.31174 3.55026 3.15913 3.55026 3C3.55026 2.84087 3.61251 2.68826 3.72333 2.57574C3.83415 2.46321 3.98445 2.4 4.14116 2.4H8.85883C9.01555 2.4 9.16585 2.46321 9.27667 2.57574C9.38749 2.68826 9.44974 2.84087 9.44974 3C9.44974 3.15913 9.38749 3.31174 9.27667 3.42426C9.16585 3.53679 9.01555 3.6 8.85883 3.6Z" fill="#777777"/>
</svg>
