<svg width="17" height="17" viewBox="0 0 17 17" fill="none" xmlns="http://www.w3.org/2000/svg">
<path d="M8.50033 5.84375C7.97498 5.84375 7.46142 5.99954 7.0246 6.29141C6.58778 6.58328 6.24732 6.99813 6.04628 7.4835C5.84523 7.96886 5.79263 8.50295 5.89512 9.01821C5.99761 9.53347 6.2506 10.0068 6.62208 10.3783C6.99356 10.7497 7.46686 11.0027 7.98212 11.1052C8.49739 11.2077 9.03147 11.1551 9.51684 10.9541C10.0022 10.753 10.4171 10.4126 10.7089 9.97573C11.0008 9.53892 11.1566 9.02536 11.1566 8.5C11.1545 7.79616 10.874 7.12176 10.3763 6.62407C9.87857 6.12638 9.20417 5.84585 8.50033 5.84375ZM14.2352 8.5C14.2338 8.7482 14.2156 8.99602 14.1807 9.24176L15.7974 10.5075C15.8678 10.5656 15.9152 10.6469 15.9312 10.7368C15.9472 10.8267 15.9307 10.9193 15.8847 10.9982L14.3554 13.6385C14.3089 13.7167 14.2363 13.7759 14.1504 13.8059C14.0646 13.8358 13.9709 13.8345 13.8859 13.8022L11.985 13.0385C11.5892 13.3433 11.156 13.5963 10.6961 13.7912L10.4118 15.8093C10.3959 15.8997 10.3491 15.9818 10.2794 16.0415C10.2097 16.1012 10.1214 16.1349 10.0297 16.1367H6.971C6.8809 16.135 6.79406 16.1027 6.72465 16.0453C6.65524 15.9878 6.60736 15.9085 6.58883 15.8203L6.30461 13.8022C5.84338 13.6095 5.4099 13.3561 5.01566 13.0488L3.11479 13.8125C3.02981 13.8448 2.93616 13.8462 2.85029 13.8163C2.76442 13.7864 2.69184 13.7272 2.64529 13.6491L1.11596 11.0092C1.06992 10.9303 1.05343 10.8376 1.06943 10.7477C1.08543 10.6578 1.13287 10.5766 1.20328 10.5184L2.81994 9.25272C2.78546 9.00326 2.76727 8.75182 2.76549 8.5C2.76687 8.2518 2.78506 8.00398 2.81994 7.75824L1.20328 6.49254C1.13287 6.4344 1.08543 6.35312 1.06943 6.26322C1.05343 6.17332 1.06992 6.08066 1.11596 6.0018L2.64529 3.36148C2.69178 3.28332 2.76435 3.22406 2.85022 3.19412C2.9361 3.16418 3.02978 3.16548 3.11479 3.19779L5.01566 3.96146C5.41149 3.65666 5.84464 3.40371 6.30461 3.20875L6.58883 1.19066C6.60474 1.10027 6.65154 1.0182 6.72125 0.958489C6.79095 0.898777 6.87923 0.865124 6.971 0.863281H10.0297C10.1198 0.865035 10.2066 0.897278 10.276 0.954748C10.3454 1.01222 10.3933 1.09152 10.4118 1.17971L10.6961 3.19779C11.1579 3.39036 11.5919 3.64373 11.9867 3.95117L13.8859 3.1875C13.9709 3.15516 14.0645 3.15381 14.1504 3.18368C14.2362 3.21356 14.3088 3.27276 14.3554 3.35086L15.8847 5.99117C15.9307 6.07003 15.9472 6.16269 15.9312 6.25259C15.9152 6.34249 15.8678 6.42377 15.7974 6.48191L14.1807 7.74762C14.2152 7.99696 14.2334 8.24829 14.2352 8.5Z" fill="#777777"/>
</svg>
