<svg width="22" height="12" viewBox="0 0 22 12" fill="none" xmlns="http://www.w3.org/2000/svg">
<path d="M14.7812 7.03125L18.5625 3.25M9.96875 4.28125L12.7188 7.03125M3.4375 8.75L7.90625 4.28125" stroke="#333333" stroke-linecap="round" stroke-linejoin="round"/>
<path d="M19.5938 3.25C20.1633 3.25 20.625 2.78829 20.625 2.21875C20.625 1.64921 20.1633 1.1875 19.5938 1.1875C19.0242 1.1875 18.5625 1.64921 18.5625 2.21875C18.5625 2.78829 19.0242 3.25 19.5938 3.25Z" stroke="#333333" stroke-linecap="round" stroke-linejoin="round"/>
<path d="M13.75 9.09375C14.3195 9.09375 14.7812 8.63204 14.7812 8.0625C14.7812 7.49296 14.3195 7.03125 13.75 7.03125C13.1805 7.03125 12.7188 7.49296 12.7188 8.0625C12.7188 8.63204 13.1805 9.09375 13.75 9.09375Z" stroke="#333333" stroke-linecap="round" stroke-linejoin="round"/>
<path d="M8.9375 4.28125C9.50704 4.28125 9.96875 3.81954 9.96875 3.25C9.96875 2.68046 9.50704 2.21875 8.9375 2.21875C8.36796 2.21875 7.90625 2.68046 7.90625 3.25C7.90625 3.81954 8.36796 4.28125 8.9375 4.28125Z" stroke="#333333" stroke-linecap="round" stroke-linejoin="round"/>
<path d="M2.40625 10.8125C2.97579 10.8125 3.4375 10.3508 3.4375 9.78125C3.4375 9.21171 2.97579 8.75 2.40625 8.75C1.83671 8.75 1.375 9.21171 1.375 9.78125C1.375 10.3508 1.83671 10.8125 2.40625 10.8125Z" stroke="#333333" stroke-linecap="round" stroke-linejoin="round"/>
</svg>
