<svg width="19" height="15" viewBox="0 0 19 15" fill="none" xmlns="http://www.w3.org/2000/svg">
<path d="M5.38312 7.50013C6.95708 7.50013 8.23303 6.12646 8.23303 4.43195C8.23303 2.73744 6.95708 1.36377 5.38312 1.36377C3.80915 1.36377 2.5332 2.73744 2.5332 4.43195C2.5332 6.12646 3.80915 7.50013 5.38312 7.50013Z" fill="#777777"/>
<path d="M8.62891 9.20457C7.51427 8.59519 6.28406 8.35229 5.38317 8.35229C3.6186 8.35229 0 9.51735 0 11.8466V13.6364H5.93732V12.9516C5.93732 12.1419 6.25398 11.3301 6.80813 10.6534C7.25026 10.1131 7.86933 9.61153 8.62891 9.20457Z" fill="#777777"/>
<path d="M12.8252 8.86377C10.7642 8.86377 6.65039 10.2342 6.65039 12.9547V15.0001H19V12.9547C19 10.2342 14.8862 8.86377 12.8252 8.86377Z" fill="#777777"/>
<path d="M12.825 7.5C14.7488 7.5 16.3083 5.82107 16.3083 3.75C16.3083 1.67893 14.7488 0 12.825 0C10.9013 0 9.3418 1.67893 9.3418 3.75C9.3418 5.82107 10.9013 7.5 12.825 7.5Z" fill="#777777"/>
</svg>
