<svg width="17" height="17" viewBox="0 0 17 17" fill="none" xmlns="http://www.w3.org/2000/svg">
<path d="M10.6206 8.5L16.5563 2.56432C16.838 2.28311 16.9964 1.90151 16.9968 1.50347C16.9972 1.10543 16.8394 0.723548 16.5582 0.441842C16.2769 0.160135 15.8953 0.0016772 15.4973 0.00132568C15.0993 0.000974155 14.7174 0.158758 14.4357 0.439967L8.5 6.37565L2.56432 0.439967C2.28261 0.158261 1.90054 0 1.50214 0C1.10375 0 0.721674 0.158261 0.439967 0.439967C0.158261 0.721674 0 1.10375 0 1.50214C0 1.90054 0.158261 2.28261 0.439967 2.56432L6.37565 8.5L0.439967 14.4357C0.158261 14.7174 0 15.0995 0 15.4979C0 15.8962 0.158261 16.2783 0.439967 16.56C0.721674 16.8417 1.10375 17 1.50214 17C1.90054 17 2.28261 16.8417 2.56432 16.56L8.5 10.6243L14.4357 16.56C14.7174 16.8417 15.0995 17 15.4979 17C15.8962 17 16.2783 16.8417 16.56 16.56C16.8417 16.2783 17 15.8962 17 15.4979C17 15.0995 16.8417 14.7174 16.56 14.4357L10.6206 8.5Z" fill="white"/>
</svg>
