<svg width="100" height="100" viewBox="0 0 100 100" fill="none" xmlns="http://www.w3.org/2000/svg">
<mask id="mask0_58_969" style="mask-type:luminance" maskUnits="userSpaceOnUse" x="0" y="0" width="100" height="100">
<path d="M64.8651 15.7763H84.2211V84.2274H60.9715V51.5356H56.3521V46.9382H60.9715V44.6078H39.0248V46.9382H43.6441V51.5356H39.0248V84.2274H15.7789V15.7763H35.1349L49.9981 41.5255L64.8651 15.7763ZM0 50.0019C0 77.6161 22.386 100 49.9981 100C77.6103 100 99.9963 77.6161 99.9963 50.0019C99.9963 22.3877 77.614 0 49.9981 0C22.3823 0 0 22.3877 0 50.0019Z" fill="white"/>
</mask>
<g mask="url(#mask0_58_969)">
<path d="M100 0H0V100H100V0Z" fill="url(#paint0_linear_58_969)"/>
</g>
<defs>
<linearGradient id="paint0_linear_58_969" x1="0.0369254" y1="50.5296" x2="100.034" y2="50.5296" gradientUnits="userSpaceOnUse">
<stop stop-color="#17699A"/>
<stop offset="0.03" stop-color="#17699A"/>
<stop offset="1" stop-color="#009BD7"/>
</linearGradient>
</defs>
</svg>
